<svg width="32" height="33" viewBox="0 0 32 33" fill="none" xmlns="http://www.w3.org/2000/svg">
<g filter="url(#filter0_i_1_32)">
<path d="M6.0695 9.0545C5.40253 7.88082 3.91585 7.48427 2.74891 8.16877C1.58197 8.85327 1.17665 10.3596 1.84362 11.5333L12.5733 30.4146C13.2403 31.5883 14.727 31.9849 15.8939 31.3004C17.0608 30.6159 17.4662 29.1095 16.7992 27.9358L6.0695 9.0545Z" fill="#47F00C"/>
<path d="M30.7705 5.50516C31.4495 4.31026 31.0369 2.77667 29.8489 2.0798C28.6608 1.38292 27.1473 1.78665 26.4683 2.98154L12.6049 27.3773C11.9259 28.5722 12.3385 30.1057 13.5266 30.8026C14.7146 31.4995 16.2282 31.0958 16.9072 29.9009L30.7705 5.50516Z" fill="#47F00C"/>
</g>
<defs>
<filter id="filter0_i_1_32" x="1.52243" y="1.73831" width="29.5751" height="33.8975" filterUnits="userSpaceOnUse" color-interpolation-filters="sRGB">
<feFlood flood-opacity="0" result="BackgroundImageFix"/>
<feBlend mode="normal" in="SourceGraphic" in2="BackgroundImageFix" result="shape"/>
<feColorMatrix in="SourceAlpha" type="matrix" values="0 0 0 0 0 0 0 0 0 0 0 0 0 0 0 0 0 0 127 0" result="hardAlpha"/>
<feOffset dy="4"/>
<feGaussianBlur stdDeviation="2"/>
<feComposite in2="hardAlpha" operator="arithmetic" k2="-1" k3="1"/>
<feColorMatrix type="matrix" values="0 0 0 0 0 0 0 0 0 0 0 0 0 0 0 0 0 0 0.25 0"/>
<feBlend mode="normal" in2="shape" result="effect1_innerShadow_1_32"/>
</filter>
</defs>
</svg>
